<?xml version="1.0" encoding="utf-8" ?>
<!-- Generator: Assembly 1.0 - http://assemblyapp.co -->
<svg version="1.1" xmlns="http://www.w3.org/2000/svg" xmlns:xlink="http://www.w3.org/1999/xlink" width="300" height="300" viewBox="0 0 300 300">
	<rect x="0" y="0" width="300" height="300" fill="#ffffff" />
	<g id="widget" transform="matrix(1,0,0,1,150,150)">
		<path d="M0,-145.628 L-145.628,0 L0,145.628 L145.628,0 L0,-145.628 Z M50.2003,-7.24619 C50.9473,-2.4652 50.9473,2.61459 50.2003,7.54498 L59.4635,13.3718 C57.9694,20.2445 55.2801,26.8183 51.3956,32.944 L40.6383,30.4041 C37.6502,34.438 34.0645,37.8743 30.18,40.8625 L32.7199,51.6197 C26.5942,55.5042 20.0204,58.1935 13.1477,59.6876 L7.32088,50.275 C2.5399,51.022 -2.5399,51.022 -7.47029,50.275 L-13.2971,59.6876 C-20.1698,58.1935 -26.7436,55.5042 -32.8693,51.6197 L-30.3294,40.713 C-34.3633,37.7249 -37.7996,34.1392 -40.7878,30.2546 L-51.545,32.7946 C-55.4295,26.6689 -58.1188,20.0951 -59.6129,13.2224 L-50.2003,7.39558 C-50.9473,2.61459 -50.9473,-2.4652 -50.2003,-7.39558 L-59.6129,-13.2224 C-58.1188,-20.0951 -55.4295,-26.6689 -51.545,-32.7946 L-40.6384,-30.4041 C-37.6502,-34.438 -34.0645,-37.8744 -30.18,-40.8625 L-32.7199,-51.6197 C-26.5942,-55.5042 -20.0204,-58.1935 -13.1477,-59.6876 L-7.32088,-50.1256 C-2.5399,-50.8726 2.5399,-50.8726 7.47028,-50.1256 L13.2971,-59.5382 C20.1698,-58.0441 26.7436,-55.3548 32.8693,-51.4703 L30.3294,-40.5636 C34.3633,-37.5755 37.7996,-33.9898 40.7878,-30.1053 L51.545,-32.6452 C55.4295,-26.5195 58.1188,-19.9457 59.6129,-13.073 L50.2003,-7.24619 Z M20.4686,8.59082 C25.2496,-2.76402 19.871,-15.7623 8.51613,-20.3939 C-2.6893,-25.1749 -15.837,-19.7963 -20.4686,-8.44143 C-25.2496,2.764 -19.871,15.7623 -8.51613,20.5433 C2.6893,25.3243 15.6876,19.9457 20.4686,8.59082 Z" fill="#000000" fill-opacity="1" />
		<path d="M145.629,26.2533 L28.7653,145.629 L145.629,143.733 L145.629,26.2533 Z" fill="#000000" fill-opacity="1" />
		<path d="M-145.629,26.2533 L-28.7653,145.629 L-145.629,143.733 L-145.629,26.2533 Z" fill="#000000" fill-opacity="1" />
	</g>
</svg>
